<?xml version="1.0" encoding="utf-8"?>
<!-- Generator: Adobe Illustrator 19.0.0, SVG Export Plug-In . SVG Version: 6.00 Build 0)  -->
<svg version="1.1" id="Слой_1" xmlns="http://www.w3.org/2000/svg" xmlns:xlink="http://www.w3.org/1999/xlink" x="0px" y="0px"
	 viewBox="0 0 14 16" style="enable-background:new 0 0 14 16;" xml:space="preserve">
    <path fill="#0D0F0F" d="M0.4,13.2h2.5v2.1c0,0.1,0,0.2,0.1,0.3C3,15.7,3,15.7,3.2,15.7H5c0.1,0,0.2,0,0.2-0.1
    	c0.1-0.1,0.1-0.1,0.1-0.3v-2.1h5.5c0.1,0,0.2,0,0.3-0.1c0.1-0.1,0.1-0.1,0.1-0.3v-1.4c0-0.1,0-0.2-0.1-0.3
    	c-0.1-0.1-0.1-0.1-0.3-0.1H5.3V9.9H9c1.5,0,2.6-0.4,3.6-1.3c0.9-0.9,1.4-2,1.4-3.4c0-1.4-0.5-2.6-1.4-3.4C11.7,0.7,10.5,0.3,9,0.3
    	H3.2C3,0.3,3,0.3,2.9,0.4C2.8,0.5,2.8,0.5,2.8,0.6v6.9H0.4c-0.1,0-0.2,0-0.3,0.1C0,7.7,0,7.8,0,7.9v1.6c0,0.1,0,0.2,0.1,0.3
    	c0.1,0.1,0.1,0.1,0.3,0.1h2.5v1.3H0.4c-0.1,0-0.2,0-0.3,0.1C0,11.3,0,11.4,0,11.5v1.4c0,0.1,0,0.2,0.1,0.3
    	C0.2,13.2,0.2,13.2,0.4,13.2z M5.3,2.6h3.5c0.8,0,1.4,0.2,1.9,0.7c0.5,0.5,0.7,1,0.7,1.8c0,0.7-0.2,1.3-0.7,1.8
    	c-0.5,0.5-1.1,0.7-1.9,0.7H5.3V2.6z"/>
</svg>
